<?xml version="1.0" encoding="utf-8"?>
<!-- Generator: Adobe Illustrator 21.0.0, SVG Export Plug-In . SVG Version: 6.00 Build 0)  -->
<svg version="1.1" id="Camada_1" xmlns="http://www.w3.org/2000/svg" xmlns:xlink="http://www.w3.org/1999/xlink" x="0px" y="0px"
	 viewBox="0 0 1600 1600" style="enable-background:new 0 0 1600 1600;" xml:space="preserve">
<style type="text/css">
	.st0{display:none;fill:none;stroke:#000000;stroke-miterlimit:10;}
	.st1{fill:#00FFFF;}
	.st2{fill:#C69C6D;}
	.st3{fill:#1A1A1A;}
	.st4{opacity:0.25;}
	.st5{fill:#FFFFFF;}
	.st6{opacity:0.1;}
	.st7{fill:#4C3A2E;}
	.st8{fill:none;}
	.st9{fill:#C1272D;}
	.st10{fill:none;stroke:#1A1A1A;stroke-width:15;stroke-linecap:round;stroke-miterlimit:10;}
</style>
<circle class="st0" cx="800" cy="800" r="793"/>
<g>
	<circle class="st1" cx="800" cy="897" r="572"/>
	<path class="st2" d="M1046,395L1046,395c44.2,0,80,35.8,80,80v42c0,44.2-35.8,80-80,80h0c-44.2,0-80-35.8-80-80v-42
		C966,430.8,1001.8,395,1046,395z"/>
	<path class="st2" d="M556,395L556,395c-44.2,0-80,35.8-80,80v42c0,44.2,35.8,80,80,80h0c44.2,0,80-35.8,80-80v-42
		C636,430.8,600.2,395,556,395z"/>
	<path class="st3" d="M1305.9,1167c-37.8-129.2-247-228-499.4-228c-261.4,0-476.4,106-502.8,241.8C402.2,1353.6,588,1470,801,1470
		C1019.7,1470,1209.7,1347.3,1305.9,1167z"/>
	<path class="st2" d="M836.2,1070h-70.5c-38,0-68.8-30.8-68.8-68.8V775.8c0-38,30.8-68.8,68.8-68.8h70.5c38,0,68.8,30.8,68.8,68.8
		v225.5C905,1039.2,874.2,1070,836.2,1070z"/>
	<path class="st4" d="M836.2,750h-70.5c-38,0-68.8,30.8-68.8,68.8v61.9c21,6.1,43.2,9.3,66.2,9.3h74.6c23.4,0,45.9-3.4,67.3-9.7
		v-61.6C905,780.8,874.2,750,836.2,750z"/>
	<path class="st2" d="M835.7,855h-71.5C632.1,855,525,747.9,525,615.7V369.3C525,237.1,632.1,130,764.3,130h71.5
		c132.1,0,239.3,107.1,239.3,239.3v246.5C1075,747.9,967.9,855,835.7,855z"/>
	<g>
		<circle class="st5" cx="677" cy="443" r="52.5"/>
		<circle class="st5" cx="925" cy="441" r="52.5"/>
		<circle class="st3" cx="677" cy="443" r="40"/>
		<circle class="st3" cx="925" cy="441" r="40"/>
	</g>
	<g class="st6">
		<g id="XMLID_1_">
			<g>
				<path d="M759.7,586h82.7c0,13.5-14.3,24.5-31.8,24.5c-10.6,0-19,0-19,0C773.9,610.5,759.7,599.5,759.7,586z"/>
			</g>
			<g>
			</g>
		</g>
	</g>
	<g id="XMLID_4_">
		<g>
			<path class="st7" d="M1030.5,393.5c0-67.5-11-122.3-24.7-123c9.2-15.4,14.7-34.3,14.7-54.7c34.2,41.1,54.8,94,54.8,151.7v17
				c-8.2,0.9-14.8,46.6-14.8,103l-30,5V393.5z"/>
			<path class="st7" d="M575.1,325.1c-2.9,20.1-4.6,44.8-4.6,71.4v90l-30-5c0-53.3-6.6-96.5-14.9-97v0v-17
				c0-57.7,20.6-110.7,54.9-151.8c0,60.7-9.8,109.8-22,109.8C564.2,325.5,569.8,325.4,575.1,325.1z"/>
			<path class="st3" d="M1005.8,270.5c-14.2,23.6-37.2,39-63.3,39c12.7,0,23-21.9,23-49l-0.2,0c-3.5,30.2-47.3,54-100.8,54
				c23.8,0,43-22.4,43-50c0,18.2-23.3,33-52,33c5,0,9-14.8,9-33c0,27.6-47,50-105,50c19.2,0,34.7-25.5,35-57.1
				c-1.3,38.3-82.6,69.1-183,69.1c18.8,0,34-10.3,34-23c0,10.7-30.3,19.6-70.4,21.6c-5.4,0.3-10.9,0.4-16.6,0.4
				c12.2,0,22-49.1,22-109.8c43.6-52.4,109.2-85.7,182.7-85.7h74.5c73.5,0,139.2,33.4,182.8,85.8
				C1020.4,236.3,1015,255.1,1005.8,270.5z"/>
		</g>
		<g>
		</g>
	</g>
	<path class="st8" d="M737,768.3c-22.1-7.9-39.8-25.3-48-47.3"/>
	<path class="st8" d="M927,721c-8.2,22-25.8,39.4-47.9,47.3"/>
	<path class="st3" d="M845,773h-88c-44.2,0-80-35.8-80-80v0h248v0C925,737.2,889.2,773,845,773z"/>
	<g id="XMLID_2_">
		<g>
			<path class="st5" d="M677,693h248c0,4.9-0.4,9.7-1.3,14.4c-0.9,4.7-2.1,9.2-3.7,13.6H682C678.8,712.3,677,702.8,677,693z"/>
		</g>
		<g>
		</g>
	</g>
	<g id="XMLID_3_">
		<g>
			<path class="st9" d="M872.1,768.3H872l-142.1,0c0.4-11.8,25.4-21.3,56.2-21.3h29.8C846.7,747,871.7,756.5,872.1,768.3z"/>
			<path class="st9" d="M729.9,768.3l142.1,0c-8.5,3-17.6,4.7-27.1,4.7h-88C747.4,773,738.3,771.3,729.9,768.3z"/>
		</g>
		<g>
		</g>
	</g>
	<path class="st10" d="M624.5,377.7c22.6-29.4,64.6-34.9,93.9-12.3"/>
	<path class="st10" d="M979.5,373.7c-22.6-29.4-64.6-34.9-93.9-12.3"/>
	<ellipse class="st2" cx="805.5" cy="1039.5" rx="221.5" ry="99.5"/>
	<path class="st2" d="M795,889"/>
</g>
</svg>
