<?xml version="1.0" encoding="utf-8"?>
<!-- Generator: Adobe Illustrator 16.0.0, SVG Export Plug-In . SVG Version: 6.00 Build 0)  -->
<!DOCTYPE svg PUBLIC "-//W3C//DTD SVG 1.1//EN" "http://www.w3.org/Graphics/SVG/1.1/DTD/svg11.dtd">
<svg version="1.1" id="Layer_1" xmlns="http://www.w3.org/2000/svg" xmlns:xlink="http://www.w3.org/1999/xlink" x="0px" y="0px"
	 width="336.59px" height="86px" viewBox="0 0 336.59 86" enable-background="new 0 0 336.59 86" xml:space="preserve">
<g>
	<g>
		<path fill="#FFFFFF" d="M217.975,48.88c-0.565-0.164-1.136-0.094-1.717,0.22c-0.58,0.306-0.997,0.949-1.249,1.93
			c-0.076,1.306-0.311,2.506-0.71,3.595c-0.397,1.091-0.87,1.995-1.416,2.724c-0.543,0.726-1.106,1.26-1.688,1.602
			c-0.582,0.347-1.109,0.413-1.578,0.196c-0.871-0.402-1.462-1.394-1.771-2.967c-0.308-1.586-0.437-3.518-0.382-5.799
			c0.055-2.292,0.265-4.814,0.627-7.574c0.362-2.761,0.77-5.522,1.224-8.277c0.456-2.76,0.91-5.382,1.363-7.87
			c0.454-2.488,0.809-4.601,1.061-6.344c0.146-0.91-0.044-1.634-0.571-2.179c-0.525-0.546-1.145-0.889-1.853-1.036
			c-0.706-0.143-1.387-0.052-2.038,0.275c-0.656,0.327-1.054,0.926-1.201,1.792c-0.215,1.276-0.508,2.772-0.871,4.496
			c-0.362,1.723-0.734,3.456-1.116,5.199c-0.381,1.743-0.733,3.375-1.063,4.903c-0.326,1.524-0.597,2.687-0.814,3.489
			c-1.635-0.947-3.185-1.494-4.656-1.636c-1.471-0.146-2.842-0.016-4.112,0.377c-1.598,0.509-3.023,1.374-4.274,2.593
			c-1.251,1.214-2.296,2.638-3.133,4.273c-0.834,1.633-1.425,3.393-1.769,5.281c-0.323,1.771-0.377,3.492-0.204,5.165
			c-0.022,0.044-0.039,0.099-0.062,0.147c-0.617,1.248-1.254,2.282-1.907,3.102c-0.651,0.816-1.297,1.41-1.934,1.77
			c-0.634,0.362-1.226,0.508-1.767,0.435c-0.328-0.038-0.5-0.391-0.52-1.062c-0.018-0.671,0.036-1.554,0.163-2.642
			c0.125-1.091,0.28-2.331,0.465-3.733c0.181-1.398,0.316-2.829,0.407-4.298c0.09-1.47,0.099-2.936,0.025-4.384
			c-0.071-1.455-0.307-2.786-0.708-4.008c-0.399-1.209-1.006-2.246-1.823-3.101c-0.815-0.854-1.898-1.426-3.238-1.713
			c-1.308-0.256-2.523-0.227-3.648,0.081c-1.127,0.306-2.153,0.799-3.077,1.468c-0.925,0.674-1.788,1.445-2.587,2.318
			c-0.8,0.868-1.528,1.74-2.179,2.609v-1.191c-0.037-1.203-0.356-2.129-0.952-2.782c-0.601-0.655-1.279-1.005-2.046-1.061
			c-0.761-0.052-1.486,0.191-2.176,0.732c-0.69,0.548-1.126,1.417-1.309,2.617c-0.182,4.463-0.353,8.08-0.514,10.839
			c-0.148,2.456-0.285,4.444-0.416,6.023c-0.035,0.06-0.063,0.125-0.099,0.185c-0.744,1.234-1.598,2.257-2.56,3.074
			c-0.961,0.816-1.987,1.188-3.076,1.117c-0.908-0.069-1.544-0.535-1.907-1.387c-0.362-0.854-0.554-1.925-0.57-3.217
			c-0.02-1.287,0.108-2.742,0.382-4.354c0.271-1.617,0.598-3.223,0.977-4.819c0.384-1.601,0.773-3.135,1.174-4.606
			c0.398-1.466,0.726-2.709,0.979-3.729c0.291-0.904,0.199-1.678-0.271-2.313c-0.471-0.632-1.061-1.088-1.772-1.363
			c-0.705-0.274-1.424-0.343-2.149-0.218c-0.727,0.129-1.197,0.519-1.417,1.175c-2.14-1.853-4.202-2.853-6.179-2.999
			c-1.979-0.146-3.804,0.294-5.475,1.306c-1.669,1.017-3.148,2.488-4.437,4.412c-1.289,1.925-2.334,4.022-3.132,6.289
			c-0.799,2.27-1.298,4.585-1.498,6.945c-0.063,0.768-0.078,1.506-0.068,2.23c-0.383,0.597-0.763,1.191-1.179,1.799
			c-0.543,0.8-1.081,1.524-1.607,2.178c-0.525,0.656-1.014,1.168-1.469,1.553c-0.454,0.379-0.826,0.555-1.115,0.515
			c-0.185-0.757-0.228-1.712-0.138-2.855c0.092-1.146,0.236-2.378,0.437-3.704c0.199-1.328,0.406-2.693,0.627-4.114
			c0.218-1.413,0.353-2.784,0.409-4.11c0.053-1.324-0.021-2.549-0.22-3.674c-0.199-1.127-0.591-2.069-1.171-2.833
			c-0.509-0.621-1.195-1.073-2.068-1.361c-0.871-0.291-1.871-0.411-2.996-0.356c-1.124,0.052-2.313,0.291-3.566,0.708
			c-1.253,0.419-2.497,1.009-3.732,1.772l3.161-18.3c0.195-1.421-0.698-3.054-2.751-3.322c-0.611-0.079-1.18-0.165-1.741-0.052
			c-0.565,0.106-1.073,0.364-1.528,0.76c-0.453,0.401-0.733,0.979-0.842,1.743c-0.689,4.287-1.299,8.083-1.826,11.382
			c-0.525,3.306-0.996,6.263-1.416,8.877c-0.417,2.614-0.791,4.952-1.114,7.026c-0.33,2.071-0.628,4.014-0.901,5.825
			c-0.271,1.817-0.516,3.579-0.734,5.284c-0.219,1.706-0.453,3.504-0.709,5.389c-0.178,0.653,0,1.164,0.547,1.529
			c0.543,0.359,1.188,0.563,1.931,0.598c0.743,0.034,1.452-0.1,2.124-0.41c0.673-0.309,1.062-0.789,1.172-1.442l2.884-16.119
			c0.108-0.546,0.492-1.172,1.145-1.88c0.652-0.711,1.433-1.359,2.34-1.959c0.907-0.6,1.86-1.059,2.861-1.391
			c0.997-0.327,1.915-0.36,2.748-0.11c0.581,0.186,0.863,0.847,0.843,1.99c-0.014,1.143-0.153,2.535-0.406,4.167
			c-0.255,1.633-0.543,3.403-0.87,5.306c-0.327,1.909-0.51,3.704-0.546,5.393s0.154,3.171,0.573,4.439
			c0.416,1.271,1.223,2.087,2.422,2.449c1.162,0.362,2.278,0.395,3.35,0.084c1.069-0.311,2.088-0.824,3.05-1.555
			c0.961-0.723,1.852-1.605,2.667-2.639c0.384-0.484,0.715-1.007,1.076-1.51c0.423,0.708,0.92,1.354,1.507,1.919
			c1.287,1.231,3.04,1.85,5.256,1.85c0.978,0,1.922-0.197,2.829-0.599c0.908-0.399,1.744-0.871,2.507-1.414
			c0.762-0.548,1.433-1.117,2.015-1.716c0.58-0.6,1.034-1.101,1.36-1.498c0.257,1.303,0.671,2.417,1.253,3.322
			c0.58,0.906,1.244,1.653,1.989,2.23c0.742,0.58,1.523,1.007,2.342,1.282c0.814,0.269,1.605,0.405,2.367,0.405
			c1.705,0,3.305-0.58,4.792-1.739c0.404-0.315,0.763-0.696,1.143-1.046c0.22,0.385,0.505,0.684,0.868,0.881
			c0.67,0.362,1.369,0.508,2.097,0.432c0.727-0.069,1.396-0.297,2.013-0.676c0.618-0.383,0.981-0.827,1.088-1.335
			c0.037-1.125,0.193-2.494,0.468-4.109c0.271-1.618,0.644-3.275,1.114-4.982c0.472-1.709,1.036-3.382,1.688-5.013
			c0.652-1.633,1.369-3.075,2.151-4.329c0.779-1.255,1.626-2.207,2.531-2.86c0.909-0.653,1.853-0.852,2.832-0.602
			c0.727,0.185,1.197,0.645,1.417,1.394c0.216,0.742,0.307,1.657,0.271,2.748c-0.039,1.091-0.163,2.306-0.382,3.649
			c-0.218,1.342-0.417,2.722-0.598,4.137c-0.182,1.418-0.291,2.808-0.327,4.171c-0.037,1.356,0.11,2.61,0.435,3.754
			c0.328,1.143,0.882,2.122,1.664,2.938c0.775,0.818,1.895,1.374,3.35,1.663c1.448,0.293,2.839,0.117,4.161-0.516
			c1.329-0.635,2.551-1.592,3.676-2.859c0.562-0.636,1.097-1.332,1.607-2.095c0.533,0.709,1.105,1.351,1.767,1.848
			c1.033,0.782,2.168,1.298,3.403,1.554c1.235,0.253,2.484,0.234,3.757-0.052c1.271-0.296,2.477-0.836,3.621-1.638
			c1.145-0.796,2.188-1.852,3.13-3.157c0.183,0.69,0.481,1.441,0.9,2.262c0.415,0.815,0.933,1.577,1.551,2.284
			c0.619,0.706,1.325,1.308,2.124,1.799c0.799,0.488,1.668,0.735,2.615,0.735c1.559,0,2.977-0.477,4.245-1.417
			c1.271-0.946,2.36-2.104,3.27-3.486c0.905-1.38,1.613-2.84,2.124-4.382c0.508-1.547,0.797-2.932,0.869-4.167
			c0.146-0.724,0.029-1.359-0.352-1.904C219.01,49.397,218.537,49.043,217.975,48.88z M140.684,42.507
			c-0.182,1.07-0.428,2.252-0.735,3.538c-0.309,1.29-0.698,2.628-1.172,4.004c-0.471,1.381-1.052,2.625-1.742,3.731
			c-0.688,1.11-1.479,1.985-2.368,2.643c-0.89,0.648-1.915,0.926-3.079,0.811c-0.581-0.069-1.022-0.467-1.332-1.194
			c-0.308-0.724-0.47-1.652-0.489-2.779c-0.019-1.124,0.081-2.357,0.298-3.699c0.22-1.345,0.555-2.661,1.008-3.951
			c0.455-1.287,1.008-2.477,1.661-3.564c0.656-1.088,1.407-1.935,2.261-2.533c0.853-0.598,1.788-0.879,2.806-0.847
			c1.018,0.043,2.103,0.545,3.266,1.526C140.994,40.663,140.864,41.435,140.684,42.507z M201.149,45.776
			c-0.094,0.635-0.214,1.296-0.355,1.988c-0.143,0.686-0.308,1.379-0.488,2.069c-0.185,0.687-0.365,1.324-0.547,1.901
			c-0.472,1.526-1.15,2.719-2.042,3.571c-0.891,0.854-1.809,1.369-2.749,1.548c-1.164,0.217-2.225-0.097-3.186-0.948
			c-0.963-0.857-1.48-2.317-1.552-4.389c-0.038-1.012,0.071-2.011,0.327-2.991c0.252-0.981,0.615-1.882,1.089-2.7
			c0.469-0.813,1.025-1.521,1.661-2.119c0.632-0.602,1.332-1.026,2.093-1.28c0.91-0.292,1.861-0.318,2.861-0.086
			c0.999,0.239,2.005,0.849,3.021,1.825C201.283,44.604,201.24,45.141,201.149,45.776z"/>
		<path fill="#FFFFFF" d="M329.823,51.277c-0.291-0.637-0.699-1.154-1.227-1.554s-1.082-0.624-1.658-0.681
			c-0.586-0.055-1.055,0.171-1.42,0.681c-0.256,0.978-0.754,2.118-1.496,3.406c-0.746,1.285-1.643,2.457-2.697,3.508
			c-1.055,1.056-2.199,1.88-3.432,2.477c-1.234,0.603-2.451,0.701-3.646,0.299c-0.582-0.18-1.156-0.463-1.713-0.842
			c-0.566-0.384-1.092-0.796-1.58-1.253c-0.49-0.455-0.947-0.932-1.363-1.442c-0.418-0.504-0.773-0.981-1.063-1.418
			c1.232-0.397,2.387-0.826,3.457-1.277c1.07-0.453,2.061-1.001,2.967-1.633c0.908-0.634,1.707-1.398,2.4-2.286
			c0.686-0.892,1.27-1.951,1.738-3.186c0.33-0.905,0.545-1.864,0.656-2.861c0.111-0.998,0.08-1.958-0.084-2.884
			c-0.16-0.925-0.49-1.755-0.979-2.478c-0.49-0.732-1.135-1.29-1.932-1.693c-0.873-0.397-1.855-0.577-2.939-0.54
			c-1.092,0.036-2.191,0.254-3.299,0.652c-1.107,0.402-2.195,0.965-3.268,1.689c-1.068,0.726-2.023,1.562-2.861,2.504
			c0.076-1.344,0.13-2.905,0.168-4.685c0.036-1.777,0.068-3.605,0.107-5.471c0.035-1.869,0.062-3.692,0.082-5.474
			c0.018-1.778,0.025-3.338,0.025-4.682c0-0.873-0.289-1.528-0.869-1.963c-0.582-0.437-1.217-0.669-1.906-0.708
			c-0.691-0.034-1.342,0.138-1.961,0.521c-0.619,0.378-0.962,0.915-1.032,1.602c0.109,3.345,0.122,6.913,0.053,10.704
			c-0.076,3.796-0.198,7.651-0.382,11.573c-0.104,2.22-0.237,4.389-0.356,6.575c-0.155,0.451-0.308,0.876-0.446,1.209
			c-0.508,1.25-1.316,2.48-2.313,3.733c-1.002,1.248-2.08,2.351-3.241,3.293c-0.908,0.729-1.815,1.292-2.724,1.689
			c-0.907,0.397-1.771,0.568-2.585,0.516c-0.818-0.054-1.534-0.38-2.151-0.979c-0.618-0.6-1.072-1.567-1.365-2.914
			c1.709-2.142,3.344-4.492,4.905-7.05c1.559-2.559,2.947-5.155,4.166-7.789c1.214-2.628,2.203-5.204,2.967-7.706
			c0.76-2.504,1.216-4.781,1.361-6.835c0.146-2.05-0.054-3.776-0.602-5.171c-0.543-1.401-1.543-2.281-2.991-2.643
			c-1.853-0.469-3.53-0.498-5.037-0.081c-1.507,0.42-2.852,1.172-4.032,2.26c-1.18,1.088-2.205,2.459-3.074,4.111
			c-0.873,1.656-1.617,3.458-2.234,5.422c-0.508,1.557-0.923,3.173-1.251,4.843c-0.33,1.673-0.602,3.348-0.818,5.041
			c-0.218,1.686-0.372,3.359-0.462,5.008c-0.091,1.65-0.136,3.219-0.136,4.709c0,2.043,0.248,3.941,0.643,5.75
			c-0.141,0.262-0.267,0.529-0.423,0.788c-0.74,1.234-1.598,2.257-2.558,3.074c-0.964,0.816-1.985,1.188-3.076,1.117
			c-0.907-0.069-1.544-0.535-1.906-1.387c-0.365-0.854-0.553-1.925-0.572-3.217c-0.02-1.287,0.109-2.742,0.382-4.354
			c0.272-1.617,0.598-3.223,0.982-4.819c0.382-1.601,0.768-3.135,1.167-4.606c0.399-1.466,0.728-2.709,0.983-3.729
			c0.289-0.904,0.197-1.678-0.275-2.313c-0.472-0.632-1.062-1.088-1.769-1.363c-0.708-0.274-1.426-0.343-2.149-0.218
			c-0.728,0.129-1.201,0.519-1.418,1.175c-2.143-1.853-4.205-2.853-6.179-2.999c-1.98-0.146-3.804,0.294-5.478,1.306
			c-1.668,1.017-3.147,2.488-4.438,4.412c-1.286,1.925-2.331,4.022-3.13,6.289c-0.8,2.27-1.298,4.585-1.497,6.945
			c-0.087,1.015-0.094,1.986-0.048,2.922c-0.057,0.096-0.104,0.202-0.16,0.291c-0.768,1.159-1.62,2.087-2.563,2.776
			c-0.945,0.69-1.943,1.171-2.994,1.445c-1.057,0.271-2.033,0.388-2.943,0.354c-1.016-0.038-1.759-0.512-2.229-1.414
			c-0.476-0.91-0.763-2.069-0.873-3.487c-0.106-1.418-0.091-2.989,0.052-4.711c0.146-1.725,0.346-3.421,0.602-5.092
			c0.252-1.67,0.511-3.216,0.763-4.63c0.252-1.413,0.414-2.5,0.488-3.269h9.151c0.688-0.286,1.198-0.768,1.524-1.437
			c0.327-0.674,0.469-1.353,0.434-2.043c-0.035-0.689-0.242-1.31-0.627-1.853c-0.38-0.546-0.914-0.854-1.605-0.926h-8.004
			l1.578-9.477c0.109-1.053-0.108-1.822-0.653-2.313c-0.543-0.49-1.189-0.763-1.934-0.818c-0.744-0.051-1.461,0.101-2.151,0.462
			c-0.69,0.366-1.126,0.891-1.305,1.578l-1.906,10.568c-0.836,0.073-1.524,0.073-2.067,0c-0.547-0.073-1.235-0.073-2.074,0
			c-0.688,0.147-1.224,0.535-1.603,1.172c-0.381,0.634-0.592,1.306-0.627,2.016c-0.039,0.702,0.126,1.371,0.486,1.985
			c0.364,0.621,0.946,0.98,1.743,1.086c0.438-0.036,0.9-0.036,1.389,0c0.493,0.042,0.955,0.042,1.392,0
			c-0.365,2.253-0.7,4.52-1.009,6.811c-0.309,2.286-0.528,4.491-0.653,6.613c-0.127,2.127-0.111,4.114,0.054,5.964
			s0.543,3.468,1.145,4.848c0.599,1.383,1.471,2.458,2.612,3.238c1.145,0.782,2.642,1.171,4.494,1.171
			c2.467,0,4.646-0.35,6.536-1.06c1.887-0.708,3.51-1.695,4.872-2.966c0.145-0.136,0.261-0.311,0.401-0.451
			c0.419,0.69,0.898,1.319,1.473,1.867c1.287,1.231,3.043,1.85,5.256,1.85c0.979,0,1.922-0.197,2.83-0.599
			c0.907-0.399,1.743-0.871,2.506-1.414c0.764-0.548,1.433-1.117,2.015-1.716c0.579-0.6,1.034-1.101,1.361-1.498
			c0.252,1.303,0.673,2.417,1.254,3.322c0.579,0.906,1.242,1.653,1.985,2.23c0.744,0.58,1.528,1.007,2.345,1.282
			c0.814,0.269,1.604,0.405,2.366,0.405c1.707,0,3.305-0.58,4.793-1.739c1.351-1.056,2.557-2.354,3.652-3.839
			c0.197,0.309,0.397,0.612,0.617,0.896c1.124,1.45,2.522,2.491,4.19,3.102c1.673,0.623,3.599,0.638,5.774,0.057
			c2.215-0.582,4.393-1.801,6.534-3.648c0.52-0.435,1.006-0.936,1.491-1.438c-0.104,1.634-0.207,3.227-0.309,4.761
			c-0.033,0.541,0.095,0.999,0.385,1.359c0.289,0.364,0.649,0.655,1.088,0.873c0.437,0.219,0.916,0.354,1.445,0.407
			c0.523,0.054,1.014,0.02,1.464-0.106c0.46-0.128,0.838-0.326,1.148-0.602c0.307-0.271,0.462-0.625,0.462-1.061v-7.188
			c0.508,0.76,1.107,1.563,1.798,2.396c0.688,0.834,1.426,1.609,2.205,2.313c0.781,0.707,1.623,1.319,2.531,1.824
			c0.908,0.512,1.834,0.839,2.777,0.979c2.105,0.328,4.076,0.153,5.908-0.515c1.836-0.674,3.484-1.626,4.955-2.857
			c1.473-1.237,2.742-2.651,3.813-4.249c1.072-1.595,1.914-3.159,2.531-4.683C330.129,52.516,330.11,51.911,329.823,51.277z
			 M262.996,42.507c-0.183,1.07-0.429,2.252-0.734,3.538c-0.309,1.29-0.7,2.628-1.172,4.004c-0.476,1.381-1.052,2.625-1.744,3.731
			c-0.688,1.11-1.479,1.985-2.368,2.643c-0.891,0.648-1.918,0.926-3.078,0.811c-0.58-0.069-1.025-0.467-1.332-1.194
			c-0.311-0.724-0.476-1.652-0.488-2.779c-0.022-1.124,0.077-2.357,0.297-3.699c0.219-1.345,0.554-2.661,1.008-3.951
			c0.454-1.287,1.007-2.477,1.66-3.564s1.406-1.935,2.26-2.533c0.851-0.598,1.788-0.879,2.805-0.847
			c1.018,0.043,2.106,0.545,3.268,1.526C263.302,40.663,263.176,41.435,262.996,42.507z M282.048,44.468
			c0.126-0.924,0.309-1.972,0.546-3.129c0.234-1.163,0.508-2.414,0.815-3.76c0.312-1.34,0.662-2.669,1.063-3.972
			c0.362-1.272,0.762-2.499,1.199-3.678c0.436-1.177,0.88-2.205,1.334-3.078c0.451-0.87,0.917-1.56,1.389-2.066
			c0.469-0.511,0.925-0.747,1.361-0.71c0.437,0.034,0.696,0.345,0.79,0.926c0.089,0.579,0.054,1.333-0.111,2.259
			c-0.163,0.926-0.435,1.997-0.813,3.214c-0.384,1.217-0.846,2.498-1.389,3.838c-0.438,1.125-0.922,2.268-1.447,3.43
			c-0.525,1.161-1.068,2.278-1.635,3.351c-0.559,1.07-1.122,2.081-1.686,3.021c-0.564,0.946-1.102,1.759-1.607,2.451
			C281.858,46.093,281.925,45.396,282.048,44.468z M305.75,49.342h-0.107c0.143-1.161,0.6-2.278,1.357-3.353
			c0.764-1.065,1.582-1.966,2.451-2.692c0.873-0.723,1.707-1.208,2.506-1.442s1.328-0.12,1.578,0.354
			c0.363,0.725,0.363,1.554,0,2.477c-0.361,0.925-0.943,1.787-1.738,2.585c-0.801,0.805-1.744,1.418-2.834,1.853
			C307.875,49.562,306.805,49.633,305.75,49.342z"/>
	</g>
	<path fill="#FFFFFF" d="M73.994,59.958c8.145-14.081,5.339-32.798-6.708-44.847c-14.379-14.375-37.687-14.373-52.063,0
		c-14.374,14.376-14.376,37.687,0,52.06c12.069,12.07,30.775,14.826,44.862,6.637c0.003,0.001,0.003,0.003,0.008,0.003
		c4.653-2.444,9.59-2.312,11.809-1.52c0.647,0.231,0.671,0.171,0.478-0.378c-0.774-2.197-0.873-7.207,1.623-11.95
		C74,59.958,73.997,59.958,73.994,59.958z M66.164,38.786h-0.003c-0.057,0.084-0.191,0.246-0.191,0.25
		c-4.112,5.372-13.448,14.85-14.451,16.853c-0.498,0.998,0.836,1.98,1.634,1.517c0.598-0.348,1.457-1.269,2.684-2.656
		c2.121-2.381,2.895-3.084,5.253-5.783v-0.003c0.03-0.028,0.056-0.055,0.08-0.084c0,0,0-0.003,0.002-0.003h-0.002
		c0.184-0.196,0.396-0.369,0.648-0.503c1.184-0.629,2.656-0.183,3.286,1.004c0.369,0.689,0.369,1.484,0.071,2.142c0,0,0,0,0,0.005
		c-2.222,5.336-7.326,10.553-11.742,12.902c-12.63,6.735-28.279,1.955-35.009-10.604c0-0.003,0.001-0.008,0-0.011
		c-0.028-0.052-0.055-0.092-0.078-0.144l-1.3-2.688c-0.004-0.011-0.009-0.027-0.019-0.036c-0.002-0.01-0.005-0.019-0.008-0.022
		c-1.2-2.876-1.705-6.053-1.785-9.204c-0.127-4.829,2.095-10.434,2.095-10.434c2.152-6.421,9.512-4.135,8.098,0.542
		c-1.238,4.09-1.689,4.841-1.554,7.527c0.499,3.583,5.398,3.383,6.995,1.592c0.026-0.027,1.026-1.033,16.211-18.295
		c0,0,0.709-0.732,1.183-0.981c1.681-0.9,4.017-0.262,4.913,1.426c0.653,1.222,0.401,2.506-0.377,3.547l-0.136,0.194
		c-4.461,5.946-7.598,9.49-13.402,15.623c-0.006,0.003-0.013,0.016-0.02,0.021c-0.313,0.459-0.065,0.96,0.027,1.131
		c0.297,0.56,0.994,0.773,1.561,0.476c0-0.002,0.003-0.008,0.007-0.008c0.173-0.106,0.329-0.262,0.486-0.414
		c5.734-5.89,11.146-12.039,15.669-17.823c0.265-0.332,0.594-0.619,0.992-0.831c1.523-0.81,3.417-0.236,4.222,1.287
		c0.604,1.129,0.492,2.417-0.253,3.361l-0.24,0.32c-4.143,5.547-9.32,11.793-16.001,18.813c-0.368,0.388-0.517,0.928-0.262,1.418
		c0.301,0.561,0.999,0.776,1.565,0.479c0.139-0.078,0.249-0.178,0.356-0.296v-0.005c4.996-5.076,9.688-10.283,13.799-15.319
		l0.052-0.06c0.244-0.292,0.546-0.546,0.911-0.739c1.52-0.807,3.405-0.233,4.211,1.285C66.911,36.61,66.799,37.858,66.164,38.786z"
		/>
</g>
</svg>
