<?xml version="1.0" encoding="utf-8"?>
<!-- Generator: Adobe Illustrator 21.0.0, SVG Export Plug-In . SVG Version: 6.00 Build 0)  -->
<svg version="1.1" id="Camada_1" xmlns="http://www.w3.org/2000/svg" xmlns:xlink="http://www.w3.org/1999/xlink" x="0px" y="0px"
	 viewBox="0 0 800 800" style="enable-background:new 0 0 800 800;" xml:space="preserve">
<style type="text/css">
	.st0{display:none;}
	.st1{display:inline;fill:none;}
	.st2{display:inline;fill:#D87093;}
	.st3{display:inline;fill:#0077FF;}
	.st4{fill:url(#SVGID_1_);}
</style>
<g class="st0">
	<path class="st1" d="M387.5,748.2V412.5H51.8C58.2,594.7,205.3,741.8,387.5,748.2z"/>
	<path class="st1" d="M51.8,387.5h335.7V51.8C205.3,58.2,58.2,205.3,51.8,387.5z"/>
	<path class="st1" d="M412.5,748.2c186.4-6.6,336-160.3,336-348.2c0-140.7-83.8-266.8-213.5-321.4C496,62.3,454.9,53.2,412.5,51.8
		v335.7v25V748.2z"/>
	<path class="st2" d="M51.8,412.5h335.7h25v-25h-25H51.8C58.2,205.3,205.3,58.2,387.5,51.8v-25c-46,1.5-90.6,11.3-132.9,29.1
		c-44.5,18.8-84.4,45.7-118.7,80s-61.2,74.2-80,118.7c-19.5,46.1-29.4,95-29.4,145.4s9.9,99.3,29.4,145.4
		c18.8,44.5,45.7,84.4,80,118.7c34.3,34.3,74.2,61.2,118.7,80c42.2,17.9,86.9,27.6,132.9,29.1v-25
		C205.3,741.8,58.2,594.7,51.8,412.5z"/>
	<path class="st3" d="M709.5,190.9c-40.9-60.3-97.8-107.1-164.8-135.3C498.8,36.3,450.1,26.5,400,26.5h-12.5v0.2v25v335.7h25V51.8
		C454.9,53.2,496,62.3,535,78.6C664.7,133.2,748.5,259.3,748.5,400c0,188-149.6,341.6-336,348.2V412.5h-25v335.7v25v0.2H400
		c50.4,0,99.3-9.9,145.4-29.4c44.5-18.8,84.4-45.7,118.7-80c34.3-34.3,61.2-74.2,80-118.7c19.5-46.1,29.4-95,29.4-145.4
		C773.5,325,751.3,252.7,709.5,190.9z"/>
</g>
<g>
	<linearGradient id="SVGID_1_" gradientUnits="userSpaceOnUse" x1="7.7856" y1="400" x2="792.2144" y2="400">
		<stop  offset="0" style="stop-color:#ED0CF7"/>
		<stop  offset="1" style="stop-color:#14E9D5"/>
	</linearGradient>
	<path class="st4" d="M761.4,247.3c-19.8-46.7-48-88.7-84-124.7c-36-36-77.9-64.3-124.7-84C504.3,18.2,452.9,7.8,400,7.8
		c-52.9,0-104.3,10.4-152.7,30.8c-46.7,19.8-88.7,48-124.7,84c-36,36-64.3,77.9-84,124.7C18.2,295.7,7.8,347.1,7.8,400
		c0,52.9,10.4,104.3,30.8,152.7c19.8,46.7,48,88.6,84,124.7c36,36,77.9,64.3,124.7,84c48.4,20.5,99.8,30.8,152.7,30.8
		c52.9,0,104.3-10.4,152.7-30.8c46.7-19.8,88.6-48,124.7-84c36-36,64.3-77.9,84-124.7c20.5-48.4,30.8-99.8,30.8-152.7
		C792.2,347.1,781.8,295.7,761.4,247.3z M356.1,98.7v257.5H98.7C117.9,223.3,223.3,117.9,356.1,98.7z M356.1,443.9v257.5
		C223.3,682.1,117.9,576.7,98.7,443.9H356.1z M443.9,701.3V98.7C591,120,704.5,247,704.5,400C704.5,553,591,680,443.9,701.3z"/>
</g>
</svg>
