<?xml version="1.0" encoding="utf-8"?>
<!-- Generator: Adobe Illustrator 21.0.0, SVG Export Plug-In . SVG Version: 6.00 Build 0)  -->
<svg version="1.1" id="Camada_1" xmlns="http://www.w3.org/2000/svg" xmlns:xlink="http://www.w3.org/1999/xlink" x="0px" y="0px"
	 viewBox="0 0 800 800" style="enable-background:new 0 0 800 800;" xml:space="preserve">
<style type="text/css">
	.st0{display:none;}
	.st1{display:inline;fill:none;}
	.st2{display:inline;fill:#D87093;}
	.st3{display:inline;fill:#0077FF;}
	.st4{fill:#FFFFFF;}
	.st5{fill:url(#SVGID_1_);}
</style>
<g class="st0">
	<path class="st1" d="M387.5,748.2V412.5H51.8C58.2,594.7,205.3,741.8,387.5,748.2z"/>
	<path class="st1" d="M51.8,387.5h335.7V51.8C205.3,58.2,58.2,205.3,51.8,387.5z"/>
	<path class="st1" d="M412.5,748.2c186.4-6.6,336-160.3,336-348.2c0-140.7-83.8-266.8-213.5-321.4C496,62.3,454.9,53.2,412.5,51.8
		v335.7v25V748.2z"/>
	<path class="st2" d="M51.8,412.5h335.7h25v-25h-25H51.8C58.2,205.3,205.3,58.2,387.5,51.8v-25c-46,1.5-90.6,11.3-132.9,29.1
		c-44.5,18.8-84.4,45.7-118.7,80s-61.2,74.2-80,118.7c-19.5,46.1-29.4,95-29.4,145.4s9.9,99.3,29.4,145.4
		c18.8,44.5,45.7,84.4,80,118.7c34.3,34.3,74.2,61.2,118.7,80c42.2,17.9,86.9,27.6,132.9,29.1v-25
		C205.3,741.8,58.2,594.7,51.8,412.5z"/>
	<path class="st3" d="M709.5,190.9c-40.9-60.3-97.8-107.1-164.8-135.3C498.8,36.3,450.1,26.5,400,26.5h-12.5v0.2v25v335.7h25V51.8
		C454.9,53.2,496,62.3,535,78.6C664.7,133.2,748.5,259.3,748.5,400c0,188-149.6,341.6-336,348.2V412.5h-25v335.7v25v0.2H400
		c50.4,0,99.3-9.9,145.4-29.4c44.5-18.8,84.4-45.7,118.7-80c34.3-34.3,61.2-74.2,80-118.7c19.5-46.1,29.4-95,29.4-145.4
		C773.5,325,751.3,252.7,709.5,190.9z"/>
</g>
<g>
	<path class="st4" d="M375,375V57.4C205.5,69.7,69.7,205.5,57.4,375H375z"/>
	<path class="st4" d="M375,742.6V425H57.4C69.7,594.5,205.5,730.3,375,742.6z"/>
	<path class="st4" d="M425,57.4v685.2C602.8,729.7,743.5,581,743.5,400C743.5,219,602.8,70.3,425,57.4z"/>
	<linearGradient id="SVGID_1_" gradientUnits="userSpaceOnUse" x1="6.4946" y1="400.0002" x2="793.5059" y2="400.0002">
		<stop  offset="0" style="stop-color:#ED0CF7"/>
		<stop  offset="1" style="stop-color:#14E9D5"/>
	</linearGradient>
	<path class="st5" d="M762.6,246.8c-19.8-46.9-48.2-88.9-84.3-125.1C642.1,85.6,600,57.2,553.2,37.4C504.6,16.9,453.1,6.5,400,6.5
		c-53.1,0-104.6,10.4-153.2,30.9c-46.9,19.8-88.9,48.2-125.1,84.3C85.6,157.9,57.2,200,37.4,246.8C16.9,295.4,6.5,346.9,6.5,400
		c0,53.1,10.4,104.6,30.9,153.2c19.8,46.9,48.2,88.9,84.3,125.1c36.1,36.1,78.2,64.5,125.1,84.3c48.5,20.5,100.1,30.9,153.2,30.9
		c53.1,0,104.6-10.4,153.2-30.9c46.9-19.8,88.9-48.2,125.1-84.3s64.5-78.2,84.3-125.1c20.5-48.5,30.9-100.1,30.9-153.2
		C793.5,346.9,783.1,295.4,762.6,246.8z M375,57.4V375H57.4C69.7,205.5,205.5,69.7,375,57.4z M375,425v317.6
		C205.5,730.3,69.7,594.5,57.4,425H375z M425,742.6V57.4C602.8,70.3,743.5,219,743.5,400C743.5,581,602.8,729.7,425,742.6z"/>
</g>
</svg>
